<svg width="712" height="1683" viewBox="0 0 712 1683" fill="none" xmlns="http://www.w3.org/2000/svg">
<path d="M666 1L636.193 57.2677C592.266 140.191 519.424 204.102 431.492 236.872L424.937 239.314C382.285 255.209 354 295.935 354 341.453V527.5M354 527.5H712M354 527.5C354 573.941 376.262 598.18 398.504 609.515C401.748 611.169 401.033 621.969 397.428 622.48L299.011 636.447C295.56 636.937 295.579 641.927 299.034 642.391L433.01 660.377C436.562 660.853 436.439 666.031 432.868 666.339L285.856 679.012C282.262 679.322 282.172 684.546 285.753 684.98L396.521 698.385C399.873 698.79 400.104 703.565 396.807 704.293L321.616 720.879C318.723 721.517 318.408 725.517 321.165 726.601L345.753 736.26C350.728 738.215 354 743.015 354 748.36V882M354 882H0M354 882L376.745 925.215C400.1 969.59 400.387 1022.56 377.513 1067.18L338.533 1143.23C321.42 1176.62 316.912 1215.06 325.837 1251.5L354 1366.5M354 1366.5H712M354 1366.5V1579C354 1635.89 307.885 1682 251 1682H0" stroke="black"/>
</svg>
